<?xml version="1.0" encoding="UTF-8" standalone="no"?>
<!-- Created with Inkscape (http://www.inkscape.org/) -->

<svg
   version="1.1"
   id="svg1"
   width="333.33334"
   height="333.33334"
   viewBox="0 0 333.33334 333.33334"
   sodipodi:docname="guinea-pig.svg"
   inkscape:version="1.4.3 (0d15f75, 2025-12-25)"
   xmlns:inkscape="http://www.inkscape.org/namespaces/inkscape"
   xmlns:sodipodi="http://sodipodi.sourceforge.net/DTD/sodipodi-0.dtd"
   xmlns="http://www.w3.org/2000/svg"
   xmlns:svg="http://www.w3.org/2000/svg">
  <defs
     id="defs1" />
  <sodipodi:namedview
     id="namedview1"
     pagecolor="#505050"
     bordercolor="#ffffff"
     borderopacity="1"
     inkscape:showpageshadow="0"
     inkscape:pageopacity="0"
     inkscape:pagecheckerboard="1"
     inkscape:deskcolor="#505050"
     inkscape:zoom="1.2377904"
     inkscape:cx="105.4298"
     inkscape:cy="79.981231"
     inkscape:window-width="1280"
     inkscape:window-height="1392"
     inkscape:window-x="0"
     inkscape:window-y="0"
     inkscape:window-maximized="0"
     inkscape:current-layer="g1" />
  <g
     inkscape:groupmode="layer"
     inkscape:label="Image"
     id="g1">
    <path
       style="fill:#f2f2f2;fill-opacity:1"
       d="m 194.1394,326.50663 c -6.65931,-0.53069 -9.05616,-1.03172 -11.96952,-2.50205 -4.29048,-2.16533 -15.80606,-3.45651 -27.25387,-3.05582 -7.66165,0.26817 -13.64383,0.0679 -20.69614,-0.69294 -5.45574,-0.58857 -11.45574,-1.07615 -13.33333,-1.0835 -7.46162,-0.0292 -21.762311,-5.03265 -26.650106,-9.32419 -1.192393,-1.04694 -5.452025,-3.73469 -9.465847,-5.97279 -4.013823,-2.2381 -7.944856,-4.43386 -8.735629,-4.87946 -0.790774,-0.44561 -5.778602,-5.02011 -11.084063,-10.16557 -7.716968,-7.48423 -10.081318,-10.21766 -11.821332,-13.66667 -1.19627,-2.37121 -4.29661,-7.16129 -6.889643,-10.64462 -5.282587,-7.09633 -14.696319,-24.96786 -15.425688,-29.28496 -0.25972,-1.53727 -2.063885,-6.15204 -4.009255,-10.25504 -7.059192,-14.88862 -8.99372,-24.55345 -8.996789,-44.94763 -0.0029,-19.17142 1.074508,-26.03338 6.798517,-43.30004 l 3.355178,-10.121 -1.328354,-1.879 c -0.730595,-1.03344 -1.533778,-2.82798 -1.784853,-3.98785 -0.300285,-1.38722 -1.447665,-2.88108 -3.352972,-4.36549 -1.593061,-1.24114 -5.460934,-4.99781 -8.595274,-8.34815 -4.7603519,-5.08841 -5.8802529,-6.71571 -6.8006829,-9.881884 -1.288822,-4.43339 -0.934108,-10.55752 1.088662,-18.79573 0.697715,-2.84161 1.272115,-7.02947 1.276444,-9.30636 0.0076,-3.9955 -0.08743,-4.22787 -2.726137,-6.66667 -3.640552,-3.36473 -4.498435,-5.20816 -5.01617199,-10.77881 -0.39313,-4.22992 -0.260124,-5.0468 1.36134099,-8.36096 2.27017,-4.640059 6.718533,-8.624639 12.7960149,-11.461919 5.096281,-2.3792 11.194824,-8.14672 13.295721,-12.574031 1.638137,-3.45212 6.447692,-7.50512 12.080276,-10.18002 l 5.030886,-2.3891596 11.759638,-0.0576 c 10.665056,-0.0523 12.136112,0.0829 15.804273,1.45199 3.605484,1.3457196 4.691244,1.4540496 10,0.9977396 8.501215,-0.7307096 22.445706,0.0491 27.288706,1.52599 3.52818,1.07596 6.24115,1.20386 23,1.08433 14.38576,-0.1026 20.53808,0.112 25.33333,0.88366 12.50209,2.01187 15.23943,2.02594 21.06517,0.10831 3.10413,-1.02177 8.28053,-2.02504 12.6015,-2.44236 4.03333,-0.38955 8.98333,-0.98329 11,-1.3194196 2.01667,-0.33614 12.49118,-0.76894 23.27669,-0.96179 17.58865,-0.31448 20.04495,-0.49536 23.82934,-1.75472 4.96751,-1.65308 7.14614,-1.22091 11.81647,2.34403 2.78235,2.1238196 3.08949,2.1956796 10.80396,2.5276196 12.68036,0.54561 22.97662,3.97751 30.62618,10.208161 1.98513,1.61691 5.64288,4.25361 8.12834,5.85934 6.47595,4.18378 7.97742,6.16048 11.81626,15.556219 1.34078,3.28163 1.73783,5.56779 1.93882,11.16346 0.13901,3.8702 0.0177,8.16316 -0.26969,9.53992 -0.28734,1.37676 -0.86945,4.4532 -1.29359,6.83654 -1.31718,7.4016 -1.88979,8.92487 -4.27811,11.38084 -1.27339,1.30947 -3.60813,2.90946 -5.1883,3.55553 -5.73323,2.3441 -6.03781,2.60143 -6.83824,5.7774 -0.9496,3.7678 -3.81561,8.754854 -6.03432,10.500094 -0.91693,0.72125 -1.66714,1.5177 -1.66714,1.76989 0,0.25219 1.01455,1.70901 2.25457,3.23739 1.24001,1.52837 3.08123,4.42886 4.0916,6.44553 1.01037,2.01666 3.53776,6.51666 5.61642,10 2.07867,3.48333 4.59657,8.28333 5.59533,10.66666 0.99876,2.38334 3.01774,6.64076 4.48663,9.46095 1.84212,3.53678 2.96837,6.84608 3.6302,10.66666 1.24847,7.20721 2.79722,13.81706 4.50007,19.20572 1.08629,3.43755 1.48058,7.15849 1.9074,18 1.18234,30.03248 1.18231,30.02741 0.16385,32.91302 -0.53454,1.5145 -1.28316,4.99055 -1.66359,7.72454 -0.88831,6.38379 -2.11897,9.9453 -4.98436,14.42463 -1.26937,1.98434 -2.49514,4.13213 -2.72393,4.77285 -1.17399,3.28774 -6.06993,10.68176 -9.50289,14.35161 -2.13473,2.28203 -4.95784,6.09859 -6.27358,8.48125 -1.31574,2.38265 -3.5732,5.57821 -5.01658,7.10124 -1.44338,1.52302 -3.07306,3.77302 -3.62152,5 -0.54846,1.22697 -1.72742,3.88086 -2.61991,5.89753 -0.89249,2.01667 -4.07251,6.57681 -7.06673,10.13365 -4.55041,5.40547 -6.12759,6.79256 -9.6085,8.45044 -3.43166,1.63441 -24.91037,7.60111 -42.83115,11.89832 -2.2,0.52753 -6.7,1.68679 -10,2.57613 -5.22014,1.40681 -7.29977,1.60335 -16,1.5121 -5.5,-0.0577 -12.7,-0.32004 -16,-0.58303 z m 28,-21.93051 c 2.2,-0.48294 5.35,-1.30711 7,-1.83147 5.96826,-1.8967 17.7043,-4.85495 19.33333,-4.87326 1.49142,-0.0168 7.29546,-1.50668 17,-4.36396 4.4707,-1.31629 8.71782,-6.19607 12.56856,-14.44082 1.68972,-3.61782 4.60149,-8.30336 6.96896,-11.21426 9.16379,-11.26723 17.30349,-21.81595 18.66187,-24.18503 2.55636,-4.45839 5.39075,-12.01438 6.43264,-17.1483 0.71404,-3.51844 1.05621,-9.83977 1.15474,-21.33334 0.1336,-15.58351 0.0568,-16.71243 -1.67372,-24.59119 -0.99755,-4.54182 -1.94997,-8.47828 -2.11647,-8.74769 -0.16651,-0.26942 -0.72728,-3.30338 -1.24616,-6.74215 -0.53016,-3.51355 -1.73244,-8.00444 -2.7447,-10.25229 -0.99071,-2.2 -2.94805,-6.77811 -4.34964,-10.17358 -1.40159,-3.39547 -4.02832,-8.34547 -5.83718,-11 -1.80886,-2.65453 -3.93901,-6.10106 -4.73367,-7.65895 -0.79465,-1.55788 -3.50244,-4.92305 -6.0173,-7.47814 -6.17475,-6.27353 -9.54919,-13.08366 -11.7559,-23.725154 -2.01553,-9.71959 -1.9789,-9.5998 -4.67817,-15.29752 -1.21594,-2.56667 -2.42662,-5.56667 -2.6904,-6.66667 -0.26377,-1.1 -1.15462,-2.81315 -1.97966,-3.807 -2.28671,-2.7546 -3.86061,-7.47009 -3.45596,-10.35425 1.45801,-10.39187 9.93687,-19.503469 20.65883,-22.200489 1.74167,-0.4381 3.16667,-1.04683 3.16667,-1.35273 0,-1.80985 -12.24396,-2.52876 -21.8402,-1.28236 -5.31795,0.69072 -7.46856,0.15106 -9.05664,-2.27259 -0.90371,-1.37918 -1.22919,-1.39601 -25.17602,-1.30166 -27.03694,0.10652 -29.47961,0.39296 -44.26048,5.19018 -4.03333,1.30904 -8.45517,2.38026 -9.82632,2.38049 -1.37114,2.3e-4 -5.64824,-0.88557 -9.50468,-1.96844 l -7.0117,-1.96885 -20.49532,-0.12089 c -13.38685,-0.079 -22.89064,-0.44984 -27.40157,-1.06933 -3.79845,-0.52165 -7.08709,-0.76762 -7.308102,-0.54661 -0.22101,0.22101 -0.0213,1.0111 0.443702,1.75575 1.66785,2.67067 1.66046,7.330999 -0.0168,10.580069 -2.199898,4.26151 -5.11003,6.00538 -10.021649,6.00538 -4.921352,0 -5.876729,-0.51375 -9.120281,-4.90438 -1.43455,-1.94188 -3.462305,-4.425219 -4.506122,-5.518519 -1.043816,-1.09331 -2.478533,-2.71388 -3.18826,-3.60128 l -1.290412,-1.61344 -0.975723,2.31881 c -1.559797,3.70686 -1.121445,7.733769 1.510136,13.872849 1.30944,3.05472 2.563682,7.11008 2.787206,9.01192 0.812393,6.91219 -3.049655,11.43585 -9.302731,10.8964 -4.239465,-0.36575 -6.778006,-2.81224 -7.924023,-7.63671 -0.456267,-1.92077 -1.133581,-3.48665 -1.505143,-3.47973 -0.371561,0.007 -1.899379,0.83193 -3.395151,1.83334 -1.495772,1.0014 -4.18949,2.80207 -5.98604,4.00148 -3.39377,2.26573 -7.258126,3.62671 -13.794375,4.85821 l -3.833333,0.72225 -0.01464,5.1194 c -0.01044,3.6516 -0.392728,5.95263 -1.333334,8.02554 -0.72528,1.59837 -1.318692,4.18516 -1.318692,5.74842 0,2.49132 0.349863,3.16355 2.833334,5.44396 3.392166,3.11481 7.562514,5.769534 8.547625,5.441164 0.391493,-0.13049 2.265934,-2.319264 4.165424,-4.863934 1.899489,-2.54466 4.462143,-5.3054 5.694786,-6.13497 4.365737,-2.93816 9.800304,-2.82221 13.496523,0.28795 5.249393,4.41707 5.128103,11.641434 -0.293884,17.504614 -3.026432,3.27269 -6.025512,7.83969 -7.314355,11.13831 -0.602783,1.54274 -1.6808,4.09274 -2.395595,5.66667 -4.625604,10.18525 -9.906287,25.08091 -11.886189,33.52835 -0.584179,2.49246 -1.077246,9.80908 -1.308266,19.4134 -0.313755,13.04393 -0.206547,15.91352 0.697385,18.66666 0.587475,1.7893 1.520148,5.42706 2.072608,8.08392 0.55246,2.65685 2.021378,6.85685 3.264264,9.33333 1.242887,2.47648 3.380242,7.50268 4.749679,11.16935 1.369437,3.66667 3.173123,8.01667 4.008189,9.66667 0.835067,1.65 1.896165,4.26361 2.357996,5.80802 0.461831,1.54441 2.534219,4.93411 4.605307,7.53267 2.071088,2.59856 5.398044,7.63495 7.393235,11.19198 2.832069,5.04902 5.233126,8.11714 10.948547,13.99028 6.962719,7.15486 7.762329,7.75434 16.342158,12.25197 4.961676,2.60096 10.575056,5.88436 12.474176,7.29645 1.89912,1.41209 4.74912,2.89018 6.33333,3.28464 7.01504,1.74672 13.43296,2.60591 18.61892,2.49259 3.07714,-0.0672 13.19439,0.23935 22.48278,0.68131 14.97585,0.71259 17.84417,1.03724 25.33333,2.86739 4.64495,1.1351 10.69537,2.45569 13.44537,2.93466 6.2135,1.08219 22.88828,0.92043 28.33333,-0.27486 z m -42.05654,-18.33804 c -3.25555,-1.41747 -4.94346,-4.06632 -4.94346,-7.75782 0,-4.19005 1.98801,-6.56246 7.80046,-9.30871 l 4.40514,-2.08133 -0.43732,-12.45227 c -0.31082,-8.85033 -0.97019,-15.5738 -2.27951,-23.24373 -2.00687,-11.75619 -1.9052,-13.62527 0.88366,-16.24527 1.39421,-1.30979 2.43603,-1.62993 5.30417,-1.62993 3.04846,0 3.87962,0.29178 5.69702,2 2.84089,2.67021 4.59387,6.64489 4.61174,10.4566 0.008,1.71779 0.34889,3.96779 0.75742,5 0.67343,1.7015 1.05793,6.18256 2.34905,27.37673 0.22895,3.75833 0.45195,6.83984 0.49556,6.84778 0.0436,0.008 3.12581,0.41726 6.84936,0.90957 9.69396,1.2817 12.89769,4.07293 12.03732,10.48743 -0.75811,5.65213 -5.46702,8.03648 -13.04687,6.60627 -6.9218,-1.30605 -14.64978,-0.60176 -20.96966,1.91109 -5.81342,2.31147 -6.57836,2.4018 -9.51408,1.12359 z m -27.69825,-72.66921 c -5.05538,-2.10098 -7.84081,-4.26339 -8.97115,-6.9646 -1.92929,-4.61048 -0.6879,-8.8967 3.28846,-11.35423 2.84733,-1.75974 5.42924,-1.77127 8.79652,-0.0393 2.07061,1.06503 4.15269,1.39651 9.64096,1.5349 10.35521,0.26111 14.57552,2.78788 15.18099,9.08911 0.37128,3.86396 -0.70856,6.0092 -4.05055,8.04694 -1.84069,1.12234 -3.35449,1.29552 -11.13044,1.27332 -7.88721,-0.0225 -9.46425,-0.21862 -12.75479,-1.58614 z m 63.75479,0.48633 c -3.57551,-0.89674 -5.66081,-2.4086 -6.24615,-4.52853 -0.57037,-2.06574 -0.16116,-5.97369 0.88721,-8.4727 0.58437,-1.39297 3.74732,-3.79735 7.56689,-5.7521 1.58104,-0.80914 3.53104,-2.22857 4.33333,-3.15431 1.95976,-2.26128 6.09536,-3.63388 8.74074,-2.90103 1.12822,0.31255 3.02631,1.67671 4.21798,3.03145 2.43446,2.76762 2.88537,6.25077 1.22488,9.4618 -1.62615,3.14462 -7.40495,7.95423 -12.1328,10.09794 -5.07387,2.3006 -6.64445,2.70595 -8.59208,2.21748 z M 93.139394,151.94892 c -4.863681,-2.59357 -8.890601,-6.15039 -10.281296,-9.08106 -2.172988,-4.57923 -0.907667,-18.61056 2.300289,-25.50824 0.722887,-1.55433 1.314577,-3.20433 1.314866,-3.66666 2.9e-4,-0.46233 0.85934,-2.6406 1.909001,-4.8406 1.901549,-3.98549 8.500341,-11.088824 12.068896,-12.991674 1.75421,-0.9354 7.55516,-1.89408 14.78,-2.44259 5.83425,-0.44294 8.33806,0.84899 13.98458,7.215814 7.81555,8.81253 9.34617,13.36089 9.04742,26.88511 -0.26578,12.03199 -1.22698,15.17108 -6.13687,20.04189 -5.95946,5.91202 -6.02438,5.93046 -21.65355,6.15069 l -13.666669,0.19258 z m 31.696976,-35.06626 c 2.39087,-2.39087 2.29885,-6.93494 -0.19697,-9.72651 -1.50982,-1.68872 -2.35657,-2.05769 -4.79843,-2.09092 -2.5078,-0.0341 -3.25322,0.28212 -4.83333,2.05057 -1.46385,1.63833 -1.86824,2.74458 -1.86824,5.11071 0,4.33099 2.07815,6.29251 6.66666,6.29251 2.71456,0 3.7215,-0.32756 5.03031,-1.63636 z m 119.15346,23.40738 c -5.7037,-2.35439 -8.9315,-5.12576 -11.99358,-10.2976 -1.54541,-2.61018 -3.30141,-6.3345 -3.90223,-8.27627 -0.60082,-1.94176 -1.6614,-5.25667 -2.35684,-7.36647 -1.51031,-4.58186 -1.60775,-9.9191 -0.30538,-16.725994 1.4195,-7.41904 2.32894,-8.76858 7.48436,-11.10616 9.47756,-4.29733 18.2694,-1.90781 25.76076,7.00147 7.29623,8.677234 8.71933,13.274754 8.04744,25.998364 -0.26058,4.93468 -0.86953,9.67025 -1.4145,11 -1.73656,4.23731 -4.88878,8.56708 -7.2524,9.96166 -3.13791,1.85141 -9.32599,1.76827 -14.06763,-0.189 z m 7.54957,-36.70435 c 2.787,-2.787 2.9842,-5.444964 0.61306,-8.262914 -2.01707,-2.39715 -5.00485,-3.10363 -7.93967,-1.87739 -4.41806,1.84599 -4.9489,8.616214 -0.87055,11.102944 3.20525,1.95436 5.55625,1.67827 8.19716,-0.96264 z m 41.0981,-31.448424 c 1.38803,-1.5146 3.5151,-2.83043 5.84231,-3.61411 l 3.65959,-1.23236 0.90106,-5.4515 c 0.49558,-2.99832 0.64558,-5.66871 0.33333,-5.9342 -0.31224,-0.26548 -4.61772,-0.16096 -9.56772,0.23228 l -9,0.71497 0.2419,5.20699 c 0.21455,4.61813 0.50808,5.61708 2.59559,8.83333 1.29452,1.99449 2.45662,3.62635 2.58245,3.62635 0.12583,0 1.211,-1.07179 2.41149,-2.38175 z M 38.806059,51.720096 c 1.833334,-1.30786 4.833333,-3.13344 6.666666,-4.05685 1.833333,-0.9234 3.983704,-2.38361 4.778601,-3.24491 1.846418,-2.00065 4.221399,-9.058509 4.221399,-12.544959 0,-2.21311 -0.227773,-2.68769 -1.289933,-2.68769 -3.752715,0 -6.982041,2.4506 -10.542134,8 -2.696081,4.202589 -6.966606,8.293919 -11.969231,11.466989 -1.907381,1.20982 -3.482381,2.66467 -3.5,3.23301 -0.111324,3.59091 6.50077,3.49681 11.634632,-0.16559 z"
       id="path1" />
  </g>
</svg>
